# xmcd
#
# Track frame offsets: 
#        150
#        18962
#        36781
#        51402
#        73334
#        96156
#        116794
#        132372
#        149943
#        167787
#        184949
#
# Disc length: 2844 seconds
#
# Revision: 0
# Processed by: cddbd v1.5.2PL0 Copyright (c) Steve Scherf et al.
# Submitted via: ExactAudioCopy v1.0b3
#
DISCID=ae0b1a0b
DTITLE=Bart Walker - Waiting On Daylight
DYEAR=2013
DGENRE=Blues
TTITLE0=It's All Good
TTITLE1=Black Clouds
TTITLE2=Took It Like A Man
TTITLE3=Girl You Bad
TTITLE4=Gotta Be You
TTITLE5=Waitin On Daylight
TTITLE6=Happy
TTITLE7=Hipshake It
TTITLE8=Mary and Me
TTITLE9=99%
TTITLE10=Whippin Post
EXTD=
EXTT0=
EXTT1=
EXTT2=
EXTT3=
EXTT4=
EXTT5=
EXTT6=
EXTT7=
EXTT8=
EXTT9=
EXTT10=
PLAYORDER=
